Coordinates
version=1
nRows=10
nColumns=34
inDegrees=yes

Units are S.I. units (second, meters, Newtons, ...)
Angles are in degrees.

endheader
time	pelvis_tilt	pelvis_list	pelvis_rotation	pelvis_tx	pelvis_ty	pelvis_tz	hip_flexion_r	hip_adduction_r	hip_rotation_r	knee_angle_r	ankle_angle_r	subtalar_angle_r	mtp_angle_r	hip_flexion_l	hip_adduction_l	hip_rotation_l	knee_angle_l	socket_flexion	socket_adduction	socket_rotation	socket_tx	socket_ty	socket_tz	pros_ankle_rx	pros_ankle_ry	pros_ankle_rz	pros_ankle_tx	pros_ankle_ty	pros_ankle_tz	foot_flex	lumbar_extension	lumbar_bending	lumbar_rotation
      0.90000000	      3.58723503	     -9.39832655	     11.18537387	      0.41560840	      1.04427046	      0.37084021	      6.54790795	     11.22070146	    -15.55633905	    -14.48920074	      7.59054122	     10.95848521	     12.31277264	     17.94305498	    -15.23757931	      4.89790674	    -64.57669370	     12.47952923	      0.00000000	      0.00000000	      0.00000000	      0.00000000	      0.00000000	      0.00000000	      0.00000000	      0.00000000	      0.00000000	      0.00000000	      0.00000000	      6.64891136	    -12.15887985	      7.96844894	    -26.57804824
      0.90416667	      3.47987894	     -9.11615954	     11.13041858	      0.42095798	      1.04548210	      0.37065662	      6.06501232	     10.98871496	    -15.52453635	    -14.12126219	      7.64960485	     11.15912163	     12.39572146	     18.45640627	    -14.63279238	      5.00497897	    -64.25277095	     12.30034001	      0.00000000	      0.00000000	      0.00000000	      0.00000000	      0.00000000	      0.00000000	      0.00000000	      0.00000000	      0.00000000	      0.00000000	      0.00000000	      6.52657877	    -12.07861901	      7.60668257	    -26.48387223
      0.90833333	      3.40199441	     -8.82705142	     11.08226916	      0.42627598	      1.04670655	      0.37047120	      5.53201935	     10.75370768	    -15.53334458	    -13.71011188	      7.68085763	     11.38794574	     12.46805265	     18.93098347	    -14.03139747	      5.09949496	    -63.90112236	     12.11362265	      0.00000000	      0.00000000	      0.00000000	      0.00000000	      0.00000000	      0.00000000	      0.00000000	      0.00000000	      0.00000000	      0.00000000	      0.00000000	      6.39934779	    -12.04843691	      7.23226160	    -26.42420311
      0.91250000	      3.37702634	     -8.51207510	     11.04863406	      0.43174051	      1.04805309	      0.37023579	      4.88755576	     10.49619855	    -15.62687816	    -13.21537457	      7.62333196	     11.71538011	     12.57614658	     19.28389583	    -13.42284010	      5.16365358	    -63.46983657	     11.88415009	      0.00000000	      0.00000000	      0.00000000	      0.00000000	      0.00000000	      0.00000000	      0.00000000	      0.00000000	      0.00000000	      0.00000000	      0.00000000	      6.27152677	    -12.04320098	      6.85481046	    -26.42153239
      0.91666667	      3.60281400	     -8.17338237	     11.15861333	      0.43707379	      1.04971723	      0.36981840	      3.93252640	     10.24938940	    -15.95293183	    -12.62100824	      7.48737598	     12.41732599	     13.14917762	     19.38590235	    -12.80759340	      5.33376008	    -62.94312283	     11.70795109	      0.00000000	      0.00000000	      0.00000000	      0.00000000	      0.00000000	      0.00000000	      0.00000000	      0.00000000	      0.00000000	      0.00000000	      0.00000000	      6.14943392	    -12.39053120	      6.52437152	    -26.56045939
      0.92083333	      3.49299865	     -7.97631907	     11.05736544	      0.44209780	      1.05074143	      0.36962195	      3.57232067	     10.07712674	    -15.90296870	    -12.40336421	      7.58828043	     12.51819751	     13.18531147	     19.89506127	    -12.30491094	      5.40438782	    -62.51036643	     11.49517569	      0.00000000	      0.00000000	      0.00000000	      0.00000000	      0.00000000	      0.00000000	      0.00000000	      0.00000000	      0.00000000	      0.00000000	      0.00000000	      6.01825381	    -12.44480495	      6.39870616	    -26.47470018
      0.92500000	      3.39880301	     -7.64429361	     11.00442022	      0.44764552	      1.05193772	      0.36947179	      2.97451238	      9.81091777	    -15.92974624	    -11.87116461	      7.54476772	     12.80872030	     13.25551992	     20.23658127	    -11.67380399	      5.45691105	    -61.93223311	     11.21975378	      0.00000000	      0.00000000	      0.00000000	      0.00000000	      0.00000000	      0.00000000	      0.00000000	      0.00000000	      0.00000000	      0.00000000	      0.00000000	      5.86698158	    -12.24004436	      5.81457486	    -26.37252659
      0.92916667	      3.64214093	     -7.30725138	     11.05430832	      0.45297746	      1.05359827	      0.36914867	      1.98545257	      9.58566893	    -16.18228666	    -11.23936412	      7.32820387	     13.41440012	     13.84805930	     20.22196798	    -11.10390228	      5.54229000	    -61.18518417	     11.11478632	      0.00000000	      0.00000000	      0.00000000	      0.00000000	      0.00000000	      0.00000000	      0.00000000	      0.00000000	      0.00000000	      0.00000000	      0.00000000	      5.78426014	    -12.61958801	      5.50236369	    -26.46784142
      0.93333333	      3.52071898	     -7.05987912	     10.94162198	      0.45827310	      1.05461419	      0.36903473	      1.53762912	      9.37637741	    -16.16493579	    -10.87494457	      7.29398824	     13.62968565	     13.93124164	     20.60958616	    -10.58384033	      5.55313137	    -60.55803238	     10.85893842	      0.00000000	      0.00000000	      0.00000000	      0.00000000	      0.00000000	      0.00000000	      0.00000000	      0.00000000	      0.00000000	      0.00000000	      0.00000000	      5.64413955	    -12.50433194	      5.15496415	    -26.37050713
      0.93750000	      3.43654452	     -6.82098224	     10.84575946	      0.46352471	      1.05563188	      0.36889116	      1.04853663	      9.18454088	    -16.15695051	    -10.49645158	      7.27663023	     13.84853020	     13.99914044	     20.95188946	    -10.08121055	      5.58039951	    -59.90914096	     10.57510812	      0.00000000	      0.00000000	      0.00000000	      0.00000000	      0.00000000	      0.00000000	      0.00000000	      0.00000000	      0.00000000	      0.00000000	      0.00000000	      5.50111214	    -12.46366774	      4.83167512	    -26.27288667
